<svg xmlns="http://www.w3.org/2000/svg" viewBox="0 0 64 64" shape-rendering="crispEdges">
  <!-- Wizard hat — pixel art style, transparent bg -->

  <!-- Hat cone (dark navy/indigo) -->
  <rect x="30" y="4"  width="4" height="4" fill="#1e1b4b"/>
  <rect x="28" y="8"  width="8" height="4" fill="#1e1b4b"/>
  <rect x="26" y="12" width="12" height="4" fill="#1e1b4b"/>
  <rect x="24" y="16" width="16" height="4" fill="#1e1b4b"/>
  <rect x="22" y="20" width="20" height="4" fill="#1e1b4b"/>
  <rect x="20" y="24" width="24" height="4" fill="#1e1b4b"/>
  <rect x="18" y="28" width="28" height="4" fill="#1e1b4b"/>
  <rect x="16" y="32" width="32" height="4" fill="#1e1b4b"/>

  <!-- Hat band (accent blue) -->
  <rect x="16" y="36" width="32" height="4" fill="#4338ca"/>

  <!-- Brim -->
  <rect x="8"  y="40" width="48" height="4" fill="#1e1b4b"/>
  <rect x="10" y="44" width="44" height="2" fill="#1e1b4b"/>

  <!-- Stars on cone (gold) -->
  <!-- Star 1: upper left area -->
  <rect x="22" y="14" width="2" height="2" fill="#fbbf24"/>
  <rect x="21" y="15" width="4" height="1" fill="#fbbf24"/>

  <!-- Star 2: right side -->
  <rect x="34" y="22" width="2" height="2" fill="#fbbf24"/>
  <rect x="33" y="23" width="4" height="1" fill="#fbbf24"/>

  <!-- Moon (crescent, left side of cone) -->
  <rect x="20" y="28" width="4" height="4" fill="#fbbf24"/>
  <rect x="21" y="29" width="2" height="2" fill="#1e1b4b"/>

  <!-- Highlight on left edge of cone -->
  <rect x="30" y="4"  width="1" height="4"  fill="#312e81"/>
  <rect x="28" y="8"  width="1" height="4"  fill="#312e81"/>
  <rect x="26" y="12" width="1" height="4"  fill="#312e81"/>
  <rect x="24" y="16" width="1" height="4"  fill="#312e81"/>
  <rect x="22" y="20" width="1" height="4"  fill="#312e81"/>
  <rect x="20" y="24" width="1" height="4"  fill="#312e81"/>
  <rect x="18" y="28" width="1" height="4"  fill="#312e81"/>
  <rect x="16" y="32" width="1" height="4"  fill="#312e81"/>
</svg>
